G04*
G04 #@! TF.GenerationSoftware,Altium Limited,Altium Designer,18.1.9 (240)*
G04*
G04 Layer_Color=8388736*
%FSAX25Y25*%
%MOIN*%
G70*
G01*
G75*
%ADD17R,0.04737X0.03950*%
%ADD18R,0.03517X0.07296*%
%ADD19R,0.02965X0.01784*%
%ADD20R,0.03950X0.04737*%
%ADD21C,0.04737*%
%ADD22C,0.06706*%
%ADD23R,0.06706X0.06706*%
%ADD24C,0.24422*%
D17*
X0577343Y0187205D02*
D03*
Y0180330D02*
D03*
D18*
X0564502Y0182924D02*
D03*
D19*
X0569521Y0179972D02*
D03*
Y0181940D02*
D03*
Y0183909D02*
D03*
Y0185877D02*
D03*
X0559482Y0179972D02*
D03*
Y0181940D02*
D03*
Y0183909D02*
D03*
Y0185877D02*
D03*
D20*
X0544714Y0183221D02*
D03*
X0551589D02*
D03*
X0551786Y0175579D02*
D03*
X0544911D02*
D03*
D21*
X0588559Y0240374D02*
D03*
X0541315Y0230532D02*
D03*
Y0210846D02*
D03*
X0588559Y0232500D02*
D03*
D22*
X0511500Y0248900D02*
D03*
Y0238900D02*
D03*
Y0228900D02*
D03*
Y0218900D02*
D03*
Y0208900D02*
D03*
X0611400Y0199000D02*
D03*
Y0209000D02*
D03*
Y0219000D02*
D03*
Y0229000D02*
D03*
Y0239000D02*
D03*
D23*
X0511500Y0198900D02*
D03*
X0611400Y0249000D02*
D03*
D24*
X0595500Y0184500D02*
D03*
X0528600D02*
D03*
M02*
