G04*
G04 #@! TF.GenerationSoftware,Altium Limited,Altium Designer,18.1.9 (240)*
G04*
G04 Layer_Color=16711935*
%FSAX25Y25*%
%MOIN*%
G70*
G01*
G75*
%ADD11C,0.00394*%
%ADD12C,0.00591*%
D11*
X0602535Y0232500D02*
G03*
X0602535Y0232500I-0041535J0000000D01*
G01*
X0580492Y0177468D02*
Y0190066D01*
X0574193Y0177468D02*
X0580492D01*
X0574193D02*
Y0190066D01*
X0580492D01*
X0559383Y0177806D02*
X0569620D01*
X0559383Y0188042D02*
X0569620D01*
Y0177806D02*
Y0188042D01*
X0559383Y0177806D02*
Y0188042D01*
X0542146Y0180072D02*
X0554350D01*
X0542146D02*
Y0186371D01*
X0554350D01*
Y0180072D02*
Y0186371D01*
X0542150Y0178728D02*
X0554354D01*
Y0172429D02*
Y0178728D01*
X0542150Y0172429D02*
X0554354D01*
X0542150D02*
Y0178728D01*
X0579047Y0185868D02*
X0579704Y0186523D01*
Y0187835D01*
X0579047Y0188491D01*
X0576424D01*
X0575768Y0187835D01*
Y0186523D01*
X0576424Y0185868D01*
X0575768Y0184556D02*
Y0183244D01*
Y0183900D01*
X0579704D01*
X0579047Y0184556D01*
X0553169Y0184796D02*
Y0180860D01*
X0551201D01*
X0550546Y0181516D01*
Y0182828D01*
X0551201Y0183484D01*
X0553169D01*
X0551857D02*
X0550546Y0184796D01*
X0546610D02*
X0549234D01*
X0546610Y0182172D01*
Y0181516D01*
X0547266Y0180860D01*
X0548578D01*
X0549234Y0181516D01*
X0543331Y0174004D02*
Y0177940D01*
X0545299D01*
X0545955Y0177284D01*
Y0175972D01*
X0545299Y0175316D01*
X0543331D01*
X0544643D02*
X0545955Y0174004D01*
X0547266D02*
X0548578D01*
X0547922D01*
Y0177940D01*
X0547266Y0177284D01*
D12*
X0545120Y0221869D02*
X0544202D01*
X0544661D01*
Y0219573D01*
X0544202Y0219114D01*
X0543743D01*
X0543284Y0219573D01*
X0546038Y0219114D02*
X0546957D01*
X0546498D01*
Y0221869D01*
X0546038Y0221410D01*
M02*
