G04*
G04 #@! TF.GenerationSoftware,Altium Limited,Altium Designer,18.1.9 (240)*
G04*
G04 Layer_Color=65535*
%FSAX25Y25*%
%MOIN*%
G70*
G01*
G75*
%ADD10C,0.00787*%
%ADD11C,0.00394*%
%ADD12C,0.00591*%
D10*
X0602535Y0232500D02*
G03*
X0602535Y0232500I-0041535J0000000D01*
G01*
X0580492Y0177468D02*
Y0190066D01*
X0574193Y0177468D02*
X0580492D01*
X0574193D02*
Y0190066D01*
X0580492D01*
X0557002Y0188924D02*
X0572002D01*
Y0176924D02*
Y0188924D01*
X0557002Y0176924D02*
X0572002D01*
X0557002D02*
Y0188924D01*
X0516500Y0193900D02*
Y0253900D01*
X0506500Y0193900D02*
Y0253900D01*
Y0193900D02*
X0516500D01*
X0506500Y0253900D02*
X0516500D01*
X0606400Y0194000D02*
Y0254000D01*
X0616400Y0194000D02*
Y0254000D01*
X0606400D02*
X0616400D01*
X0606400Y0194000D02*
X0616400D01*
X0542146Y0180072D02*
X0554350D01*
X0542146D02*
Y0186371D01*
X0554350D01*
Y0180072D02*
Y0186371D01*
X0542150Y0178728D02*
X0554354D01*
Y0172429D02*
Y0178728D01*
X0542150Y0172429D02*
X0554354D01*
X0542150D02*
Y0178728D01*
D11*
X0556198Y0187424D02*
G03*
X0556198Y0187424I-0000197J0000000D01*
G01*
D12*
X0555300Y0172800D02*
Y0174637D01*
X0556218Y0175555D01*
X0557137Y0174637D01*
Y0172800D01*
Y0174178D01*
X0555300D01*
X0558055Y0172800D02*
X0558973D01*
X0558514D01*
Y0175555D01*
X0558055Y0175096D01*
X0560351Y0172800D02*
X0562188Y0174637D01*
X0563106Y0172800D02*
X0564024D01*
X0563565D01*
Y0175555D01*
X0563106Y0175096D01*
X0547500Y0187500D02*
Y0189337D01*
X0548418Y0190255D01*
X0549337Y0189337D01*
Y0187500D01*
Y0188877D01*
X0547500D01*
X0550255Y0187500D02*
X0552092Y0189337D01*
X0553010Y0189796D02*
X0553469Y0190255D01*
X0554388D01*
X0554847Y0189796D01*
Y0187959D01*
X0554388Y0187500D01*
X0553469D01*
X0553010Y0187959D01*
Y0189796D01*
X0508500Y0189300D02*
Y0192055D01*
X0509877D01*
X0510337Y0191596D01*
Y0190677D01*
X0509877Y0190218D01*
X0508500D01*
X0511255Y0189300D02*
X0512173D01*
X0511714D01*
Y0192055D01*
X0511255Y0191596D01*
X0610200Y0189300D02*
Y0192055D01*
X0611578D01*
X0612037Y0191596D01*
Y0190677D01*
X0611578Y0190218D01*
X0610200D01*
X0614792Y0189300D02*
X0612955D01*
X0614792Y0191137D01*
Y0191596D01*
X0614332Y0192055D01*
X0613414D01*
X0612955Y0191596D01*
X0528037Y0267955D02*
X0527118D01*
X0527577D01*
Y0265659D01*
X0527118Y0265200D01*
X0526659D01*
X0526200Y0265659D01*
X0528955Y0265200D02*
X0529873D01*
X0529414D01*
Y0267955D01*
X0528955Y0267496D01*
X0569137Y0175555D02*
X0568218D01*
X0568678D01*
Y0173259D01*
X0568218Y0172800D01*
X0567759D01*
X0567300Y0173259D01*
X0571892Y0172800D02*
X0570055D01*
X0571892Y0174637D01*
Y0175096D01*
X0571432Y0175555D01*
X0570514D01*
X0570055Y0175096D01*
X0578437D02*
X0577978Y0175555D01*
X0577059D01*
X0576600Y0175096D01*
Y0173259D01*
X0577059Y0172800D01*
X0577978D01*
X0578437Y0173259D01*
X0579355Y0172800D02*
X0580273D01*
X0579814D01*
Y0175555D01*
X0579355Y0175096D01*
X0537600Y0172717D02*
Y0175472D01*
X0538977D01*
X0539437Y0175013D01*
Y0174095D01*
X0538977Y0173635D01*
X0537600D01*
X0538518D02*
X0539437Y0172717D01*
X0540355D02*
X0541273D01*
X0540814D01*
Y0175472D01*
X0540355Y0175013D01*
X0540600Y0187500D02*
Y0190255D01*
X0541978D01*
X0542437Y0189796D01*
Y0188877D01*
X0541978Y0188418D01*
X0540600D01*
X0541518D02*
X0542437Y0187500D01*
X0545192D02*
X0543355D01*
X0545192Y0189337D01*
Y0189796D01*
X0544733Y0190255D01*
X0543814D01*
X0543355Y0189796D01*
M02*
