G04*
G04 #@! TF.GenerationSoftware,Altium Limited,Altium Designer,18.1.9 (240)*
G04*
G04 Layer_Physical_Order=1*
G04 Layer_Color=255*
%FSAX25Y25*%
%MOIN*%
G70*
G01*
G75*
%ADD13R,0.03937X0.03150*%
%ADD14R,0.02717X0.06496*%
%ADD15R,0.02165X0.00984*%
%ADD16R,0.03150X0.03937*%
%ADD25C,0.00800*%
%ADD26C,0.03000*%
%ADD27C,0.02500*%
%ADD28C,0.01000*%
%ADD29C,0.03937*%
%ADD30C,0.05906*%
%ADD31R,0.05906X0.05906*%
%ADD32C,0.23622*%
%ADD33C,0.01968*%
G36*
X0615883Y0172217D02*
X0582080D01*
X0581873Y0172717D01*
X0583117Y0173961D01*
X0583570Y0174639D01*
X0583729Y0175439D01*
Y0181439D01*
Y0189376D01*
X0592663Y0198310D01*
X0592988D01*
X0593103Y0198233D01*
X0594000Y0198055D01*
X0607739D01*
X0607744Y0198020D01*
X0608122Y0197107D01*
X0608723Y0196324D01*
X0609507Y0195722D01*
X0610420Y0195344D01*
X0611400Y0195215D01*
X0612380Y0195344D01*
X0613293Y0195722D01*
X0614077Y0196324D01*
X0614678Y0197107D01*
X0615056Y0198020D01*
X0615185Y0199000D01*
X0615056Y0199980D01*
X0614678Y0200893D01*
X0614077Y0201677D01*
X0613293Y0202278D01*
X0612380Y0202656D01*
X0611400Y0202785D01*
X0610420Y0202656D01*
X0610332Y0202619D01*
X0609700Y0202745D01*
X0594000D01*
X0593103Y0202567D01*
X0592988Y0202490D01*
X0591797D01*
X0590998Y0202331D01*
X0590320Y0201878D01*
X0580161Y0191719D01*
X0579708Y0191041D01*
X0579549Y0190241D01*
X0579549Y0190241D01*
Y0182915D01*
X0579311Y0182720D01*
X0575374D01*
X0575062Y0182658D01*
X0574797Y0182482D01*
X0574756Y0182420D01*
X0573358D01*
X0572558Y0182261D01*
X0571920Y0181834D01*
X0571724Y0181879D01*
X0571420Y0182018D01*
Y0182432D01*
X0571357Y0182744D01*
X0571181Y0183009D01*
X0570916Y0183186D01*
X0570604Y0183248D01*
X0568439D01*
X0568126Y0183186D01*
X0567862Y0183009D01*
X0567685Y0182744D01*
X0567623Y0182432D01*
Y0181448D01*
X0567685Y0181136D01*
X0567805Y0180956D01*
X0567685Y0180776D01*
X0567623Y0180464D01*
Y0179480D01*
X0567685Y0179167D01*
X0567862Y0178903D01*
X0568126Y0178726D01*
X0568439Y0178664D01*
X0569432D01*
X0569521Y0178646D01*
X0572188D01*
X0572558Y0178399D01*
X0573358Y0178240D01*
X0574756D01*
X0574797Y0178178D01*
X0575062Y0178001D01*
X0575374Y0177939D01*
X0577524D01*
X0577672Y0177910D01*
X0577672Y0177910D01*
X0579549D01*
Y0176305D01*
X0579334Y0176090D01*
X0554830D01*
X0554176Y0176744D01*
Y0177547D01*
X0554114Y0177859D01*
X0553937Y0178124D01*
X0553673Y0178301D01*
X0553361Y0178363D01*
X0552356D01*
X0552286Y0178410D01*
X0551486Y0178569D01*
X0550686Y0178410D01*
X0550616Y0178363D01*
X0550211D01*
X0549899Y0178301D01*
X0549634Y0178124D01*
X0549457Y0177859D01*
X0549395Y0177547D01*
Y0173610D01*
X0549457Y0173298D01*
X0549634Y0173033D01*
X0549899Y0172857D01*
X0550211Y0172795D01*
X0551782D01*
X0551834Y0172717D01*
X0551567Y0172217D01*
X0507317D01*
Y0195305D01*
X0507781Y0195605D01*
X0507817Y0195600D01*
X0507971Y0195370D01*
X0508235Y0195194D01*
X0508547Y0195132D01*
X0514453D01*
X0514765Y0195194D01*
X0515029Y0195370D01*
X0515206Y0195635D01*
X0515268Y0195947D01*
Y0201853D01*
X0515206Y0202165D01*
X0515029Y0202430D01*
X0514765Y0202606D01*
X0514453Y0202668D01*
X0508547D01*
X0508235Y0202606D01*
X0507971Y0202430D01*
X0507817Y0202200D01*
X0507781Y0202195D01*
X0507317Y0202495D01*
Y0218091D01*
X0507817Y0218124D01*
X0507844Y0217920D01*
X0508222Y0217007D01*
X0508823Y0216224D01*
X0509607Y0215622D01*
X0510520Y0215244D01*
X0511500Y0215115D01*
X0512480Y0215244D01*
X0513393Y0215622D01*
X0514177Y0216224D01*
X0514778Y0217007D01*
X0515055Y0217676D01*
X0532238D01*
X0532414Y0217414D01*
X0532477Y0217372D01*
Y0212100D01*
X0532570Y0211632D01*
X0532835Y0211235D01*
X0552982Y0191087D01*
X0552791Y0190626D01*
X0547500D01*
X0546993Y0190525D01*
X0546563Y0190237D01*
X0543777Y0187451D01*
X0543490Y0187021D01*
X0543389Y0186514D01*
Y0186005D01*
X0543139D01*
X0542827Y0185943D01*
X0542563Y0185766D01*
X0542386Y0185502D01*
X0542324Y0185190D01*
Y0181253D01*
X0542386Y0180941D01*
X0542563Y0180676D01*
X0542821Y0180504D01*
Y0178165D01*
X0542759Y0178124D01*
X0542582Y0177859D01*
X0542520Y0177547D01*
Y0173610D01*
X0542582Y0173298D01*
X0542759Y0173033D01*
X0543024Y0172857D01*
X0543336Y0172795D01*
X0546486D01*
X0546798Y0172857D01*
X0547062Y0173033D01*
X0547239Y0173298D01*
X0547301Y0173610D01*
Y0177547D01*
X0547239Y0177859D01*
X0547062Y0178124D01*
X0547001Y0178165D01*
Y0180878D01*
X0547043Y0180941D01*
X0547105Y0181253D01*
Y0185190D01*
X0547043Y0185502D01*
X0546866Y0185766D01*
X0546675Y0185894D01*
X0546565Y0186247D01*
X0546540Y0186465D01*
X0548049Y0187975D01*
X0553551D01*
X0554574Y0186951D01*
Y0184500D01*
X0554675Y0183993D01*
X0554963Y0183563D01*
X0555554Y0182971D01*
X0555984Y0182684D01*
X0556491Y0182583D01*
X0557460D01*
X0557584Y0182432D01*
Y0181877D01*
X0557449Y0181778D01*
X0557084Y0181655D01*
X0556596Y0181981D01*
X0555900Y0182119D01*
X0555204Y0181981D01*
X0554614Y0181586D01*
X0554219Y0180996D01*
X0554081Y0180300D01*
X0554219Y0179604D01*
X0554614Y0179014D01*
X0555204Y0178619D01*
X0555900Y0178481D01*
X0556596Y0178619D01*
X0556789Y0178748D01*
X0558054D01*
X0558087Y0178726D01*
X0558399Y0178664D01*
X0560565D01*
X0560877Y0178726D01*
X0561141Y0178903D01*
X0561318Y0179167D01*
X0561380Y0179480D01*
Y0180464D01*
X0561318Y0180776D01*
X0561198Y0180956D01*
X0561318Y0181136D01*
X0561380Y0181448D01*
Y0182432D01*
X0561318Y0182744D01*
X0561198Y0182924D01*
X0561318Y0183104D01*
X0561380Y0183417D01*
Y0184401D01*
X0561318Y0184713D01*
X0561198Y0184893D01*
X0561318Y0185073D01*
X0561380Y0185385D01*
Y0186369D01*
X0561318Y0186681D01*
X0561141Y0186946D01*
X0560877Y0187123D01*
X0560565Y0187185D01*
X0560345D01*
X0558473Y0189057D01*
X0558465Y0189069D01*
X0555669Y0191865D01*
X0555657Y0191874D01*
X0539118Y0208413D01*
X0539448Y0208789D01*
X0539616Y0208661D01*
X0539919Y0208428D01*
X0540592Y0208149D01*
X0541315Y0208054D01*
X0542038Y0208149D01*
X0542711Y0208428D01*
X0543290Y0208872D01*
X0543733Y0209450D01*
X0544012Y0210124D01*
X0544107Y0210846D01*
X0544012Y0211569D01*
X0543733Y0212243D01*
X0543290Y0212821D01*
X0542711Y0213265D01*
X0542038Y0213544D01*
X0541315Y0213639D01*
X0540592Y0213544D01*
X0539919Y0213265D01*
X0539340Y0212821D01*
X0538897Y0212243D01*
X0538618Y0211569D01*
X0538523Y0210846D01*
X0538618Y0210124D01*
X0538897Y0209450D01*
X0539129Y0209147D01*
X0539258Y0208980D01*
X0538881Y0208649D01*
X0534924Y0212607D01*
Y0217372D01*
X0534986Y0217414D01*
X0535381Y0218004D01*
X0535519Y0218700D01*
X0535381Y0219396D01*
X0534986Y0219986D01*
X0534396Y0220381D01*
X0533700Y0220519D01*
X0533004Y0220381D01*
X0532619Y0220124D01*
X0515055D01*
X0514778Y0220793D01*
X0514177Y0221576D01*
X0513393Y0222178D01*
X0512480Y0222556D01*
X0511500Y0222685D01*
X0510520Y0222556D01*
X0509607Y0222178D01*
X0508823Y0221576D01*
X0508222Y0220793D01*
X0507844Y0219880D01*
X0507817Y0219676D01*
X0507317Y0219709D01*
Y0228091D01*
X0507817Y0228124D01*
X0507844Y0227920D01*
X0508222Y0227007D01*
X0508823Y0226223D01*
X0509607Y0225622D01*
X0510520Y0225244D01*
X0511500Y0225115D01*
X0512480Y0225244D01*
X0513393Y0225622D01*
X0514177Y0226223D01*
X0514778Y0227007D01*
X0515156Y0227920D01*
X0515285Y0228900D01*
X0515156Y0229880D01*
X0514778Y0230793D01*
X0514177Y0231576D01*
X0513393Y0232178D01*
X0512480Y0232556D01*
X0511500Y0232685D01*
X0510520Y0232556D01*
X0509607Y0232178D01*
X0508823Y0231576D01*
X0508222Y0230793D01*
X0507844Y0229880D01*
X0507817Y0229676D01*
X0507317Y0229709D01*
Y0238091D01*
X0507817Y0238124D01*
X0507844Y0237920D01*
X0508222Y0237007D01*
X0508823Y0236224D01*
X0509607Y0235622D01*
X0510520Y0235244D01*
X0511500Y0235115D01*
X0512480Y0235244D01*
X0513393Y0235622D01*
X0514177Y0236224D01*
X0514778Y0237007D01*
X0515156Y0237920D01*
X0515285Y0238900D01*
X0515156Y0239880D01*
X0514778Y0240793D01*
X0514177Y0241577D01*
X0513393Y0242178D01*
X0512480Y0242556D01*
X0511500Y0242685D01*
X0510520Y0242556D01*
X0509607Y0242178D01*
X0508823Y0241577D01*
X0508222Y0240793D01*
X0507844Y0239880D01*
X0507817Y0239676D01*
X0507317Y0239709D01*
Y0248091D01*
X0507817Y0248124D01*
X0507844Y0247920D01*
X0508222Y0247007D01*
X0508823Y0246223D01*
X0509607Y0245622D01*
X0510520Y0245244D01*
X0511500Y0245115D01*
X0512480Y0245244D01*
X0513393Y0245622D01*
X0514177Y0246223D01*
X0514778Y0247007D01*
X0515156Y0247920D01*
X0515285Y0248900D01*
X0515156Y0249880D01*
X0514778Y0250793D01*
X0514177Y0251576D01*
X0513393Y0252178D01*
X0512480Y0252556D01*
X0511500Y0252685D01*
X0510520Y0252556D01*
X0509607Y0252178D01*
X0508823Y0251576D01*
X0508222Y0250793D01*
X0507844Y0249880D01*
X0507817Y0249676D01*
X0507317Y0249709D01*
Y0274183D01*
X0615883D01*
Y0172217D01*
D02*
G37*
%LPC*%
G36*
X0614353Y0252768D02*
X0608447D01*
X0608135Y0252706D01*
X0607870Y0252530D01*
X0607694Y0252265D01*
X0607632Y0251953D01*
Y0246047D01*
X0607694Y0245735D01*
X0607870Y0245470D01*
X0608135Y0245294D01*
X0608447Y0245232D01*
X0614353D01*
X0614665Y0245294D01*
X0614929Y0245470D01*
X0615106Y0245735D01*
X0615168Y0246047D01*
Y0251953D01*
X0615106Y0252265D01*
X0614929Y0252530D01*
X0614665Y0252706D01*
X0614353Y0252768D01*
D02*
G37*
G36*
X0588559Y0243166D02*
X0587836Y0243071D01*
X0587163Y0242792D01*
X0586585Y0242349D01*
X0586141Y0241770D01*
X0585862Y0241097D01*
X0585767Y0240374D01*
X0585862Y0239651D01*
X0586141Y0238978D01*
X0586585Y0238400D01*
X0587163Y0237956D01*
X0587836Y0237677D01*
X0588559Y0237582D01*
X0589282Y0237677D01*
X0589955Y0237956D01*
X0590534Y0238400D01*
X0590977Y0238978D01*
X0591256Y0239651D01*
X0591352Y0240374D01*
X0591256Y0241097D01*
X0590977Y0241770D01*
X0590534Y0242349D01*
X0589955Y0242792D01*
X0589282Y0243071D01*
X0588559Y0243166D01*
D02*
G37*
G36*
X0611400Y0242785D02*
X0610420Y0242656D01*
X0609507Y0242278D01*
X0608723Y0241676D01*
X0608122Y0240893D01*
X0607744Y0239980D01*
X0607615Y0239000D01*
X0607744Y0238020D01*
X0608122Y0237107D01*
X0608723Y0236323D01*
X0609507Y0235722D01*
X0610420Y0235344D01*
X0611400Y0235215D01*
X0612380Y0235344D01*
X0613293Y0235722D01*
X0614077Y0236323D01*
X0614678Y0237107D01*
X0615056Y0238020D01*
X0615185Y0239000D01*
X0615056Y0239980D01*
X0614678Y0240893D01*
X0614077Y0241676D01*
X0613293Y0242278D01*
X0612380Y0242656D01*
X0611400Y0242785D01*
D02*
G37*
G36*
X0588559Y0235292D02*
X0587836Y0235197D01*
X0587163Y0234918D01*
X0586585Y0234474D01*
X0586141Y0233896D01*
X0585862Y0233223D01*
X0585767Y0232500D01*
X0585862Y0231777D01*
X0586141Y0231104D01*
X0586585Y0230525D01*
X0587163Y0230082D01*
X0587836Y0229803D01*
X0588559Y0229708D01*
X0589282Y0229803D01*
X0589955Y0230082D01*
X0590534Y0230525D01*
X0590977Y0231104D01*
X0591256Y0231777D01*
X0591352Y0232500D01*
X0591256Y0233223D01*
X0590977Y0233896D01*
X0590534Y0234474D01*
X0589955Y0234918D01*
X0589282Y0235197D01*
X0588559Y0235292D01*
D02*
G37*
G36*
X0611400Y0232785D02*
X0610420Y0232656D01*
X0609507Y0232278D01*
X0608723Y0231677D01*
X0608122Y0230893D01*
X0607744Y0229980D01*
X0607615Y0229000D01*
X0607744Y0228020D01*
X0608122Y0227107D01*
X0608723Y0226324D01*
X0609507Y0225722D01*
X0610420Y0225344D01*
X0611400Y0225215D01*
X0612380Y0225344D01*
X0613293Y0225722D01*
X0614077Y0226324D01*
X0614678Y0227107D01*
X0615056Y0228020D01*
X0615185Y0229000D01*
X0615056Y0229980D01*
X0614678Y0230893D01*
X0614077Y0231677D01*
X0613293Y0232278D01*
X0612380Y0232656D01*
X0611400Y0232785D01*
D02*
G37*
G36*
Y0222785D02*
X0610420Y0222656D01*
X0609507Y0222278D01*
X0608723Y0221676D01*
X0608122Y0220893D01*
X0607744Y0219980D01*
X0607615Y0219000D01*
X0607744Y0218020D01*
X0608122Y0217107D01*
X0608723Y0216323D01*
X0609507Y0215722D01*
X0610420Y0215344D01*
X0611400Y0215215D01*
X0612380Y0215344D01*
X0613293Y0215722D01*
X0614077Y0216323D01*
X0614678Y0217107D01*
X0615056Y0218020D01*
X0615185Y0219000D01*
X0615056Y0219980D01*
X0614678Y0220893D01*
X0614077Y0221676D01*
X0613293Y0222278D01*
X0612380Y0222656D01*
X0611400Y0222785D01*
D02*
G37*
G36*
X0522000Y0206419D02*
X0521304Y0206281D01*
X0520714Y0205886D01*
X0520319Y0205296D01*
X0520181Y0204600D01*
X0520319Y0203904D01*
X0520714Y0203314D01*
X0521304Y0202919D01*
X0522000Y0202781D01*
X0522074Y0202796D01*
X0522935Y0201935D01*
X0523332Y0201670D01*
X0523800Y0201576D01*
X0531393D01*
X0538495Y0194474D01*
X0538481Y0194400D01*
X0538619Y0193704D01*
X0539014Y0193114D01*
X0539604Y0192719D01*
X0540300Y0192581D01*
X0540996Y0192719D01*
X0541586Y0193114D01*
X0541981Y0193704D01*
X0542119Y0194400D01*
X0541981Y0195096D01*
X0541586Y0195686D01*
X0540996Y0196081D01*
X0540300Y0196219D01*
X0540226Y0196204D01*
X0532765Y0203665D01*
X0532368Y0203930D01*
X0531900Y0204024D01*
X0524307D01*
X0523805Y0204526D01*
X0523819Y0204600D01*
X0523681Y0205296D01*
X0523286Y0205886D01*
X0522696Y0206281D01*
X0522000Y0206419D01*
D02*
G37*
%LPD*%
D13*
X0577343Y0187205D02*
D03*
Y0180330D02*
D03*
D14*
X0564502Y0182924D02*
D03*
D15*
X0569521Y0179972D02*
D03*
Y0181940D02*
D03*
Y0183909D02*
D03*
Y0185877D02*
D03*
X0559482Y0179972D02*
D03*
Y0181940D02*
D03*
Y0183909D02*
D03*
Y0185877D02*
D03*
D16*
X0544714Y0183221D02*
D03*
X0551589D02*
D03*
X0551786Y0175579D02*
D03*
X0544911D02*
D03*
D25*
X0511500Y0218900D02*
X0533700D01*
X0522000Y0204600D02*
X0523800Y0202800D01*
X0611200Y0218900D02*
X0611400Y0218700D01*
X0523800Y0202800D02*
X0531900D01*
X0540300Y0194400D01*
X0533700Y0212100D02*
Y0218700D01*
Y0212100D02*
X0554800Y0191000D01*
X0556228Y0179972D02*
X0558348D01*
X0555900Y0180300D02*
X0556228Y0179972D01*
X0554800Y0191000D02*
X0554804D01*
X0557600Y0188204D01*
Y0188200D02*
Y0188204D01*
Y0188200D02*
X0559482Y0186318D01*
Y0185877D02*
Y0186318D01*
D26*
X0609700Y0200400D02*
X0611400Y0198700D01*
X0594000Y0200400D02*
X0609700D01*
D27*
X0591797D02*
X0594000D01*
X0581639Y0190241D02*
X0591797Y0200400D01*
X0581639Y0181439D02*
Y0190241D01*
X0580530Y0180330D02*
X0581639Y0181439D01*
X0577672Y0180000D02*
X0579900D01*
X0577343Y0180330D02*
X0577672Y0180000D01*
X0573358Y0180330D02*
X0577343D01*
X0581639Y0175439D02*
Y0181439D01*
X0580200Y0174000D02*
X0581639Y0175439D01*
X0553965Y0174000D02*
X0580200D01*
X0551486Y0176479D02*
X0553965Y0174000D01*
X0544911Y0176179D02*
Y0184225D01*
D28*
X0569521Y0179972D02*
X0573000D01*
X0573358Y0180330D01*
X0556491Y0183909D02*
X0559482D01*
X0555900Y0184500D02*
X0556491Y0183909D01*
X0555900Y0184500D02*
Y0187500D01*
X0554100Y0189300D02*
X0555900Y0187500D01*
X0544714Y0184421D02*
Y0186514D01*
X0547500Y0189300D01*
X0554100D01*
D29*
X0588559Y0240374D02*
D03*
X0541315Y0230532D02*
D03*
Y0210846D02*
D03*
X0588559Y0232500D02*
D03*
D30*
X0511500Y0248900D02*
D03*
Y0238900D02*
D03*
Y0228900D02*
D03*
Y0218900D02*
D03*
Y0208900D02*
D03*
X0611400Y0199000D02*
D03*
Y0209000D02*
D03*
Y0219000D02*
D03*
Y0229000D02*
D03*
Y0239000D02*
D03*
D31*
X0511500Y0198900D02*
D03*
X0611400Y0249000D02*
D03*
D32*
X0595500Y0184500D02*
D03*
X0528600D02*
D03*
D33*
X0594000Y0200400D02*
D03*
X0522000Y0204600D02*
D03*
X0540300Y0194400D02*
D03*
X0533700Y0218700D02*
D03*
X0555900Y0180300D02*
D03*
X0525590Y0212598D02*
D03*
X0519685Y0248031D02*
D03*
X0525590Y0259842D02*
D03*
X0537401Y0212598D02*
D03*
X0531496Y0248031D02*
D03*
X0537401Y0259842D02*
D03*
X0549212Y0212598D02*
D03*
X0543307Y0248031D02*
D03*
X0549212Y0259842D02*
D03*
X0561023Y0188976D02*
D03*
Y0212598D02*
D03*
X0555118Y0248031D02*
D03*
X0561023Y0259842D02*
D03*
X0566929Y0177165D02*
D03*
X0572834Y0188976D02*
D03*
Y0212598D02*
D03*
X0566929Y0248031D02*
D03*
X0572834Y0259842D02*
D03*
X0584646Y0212598D02*
D03*
Y0236220D02*
D03*
X0578740Y0248031D02*
D03*
X0584646Y0259842D02*
D03*
X0596456Y0212598D02*
D03*
Y0236220D02*
D03*
X0590551Y0248031D02*
D03*
X0596456Y0259842D02*
D03*
X0608267Y0188976D02*
D03*
Y0212598D02*
D03*
X0602362Y0248031D02*
D03*
X0608267Y0259842D02*
D03*
M02*
