G04*
G04 #@! TF.GenerationSoftware,Altium Limited,Altium Designer,18.1.9 (240)*
G04*
G04 Layer_Color=16711935*
%FSAX25Y25*%
%MOIN*%
G70*
G01*
G75*
%ADD32C,0.01000*%
%ADD33C,0.00600*%
D32*
X0617100Y0149600D02*
Y0169606D01*
X0506100Y0149600D02*
Y0169606D01*
X0574596Y0150600D02*
X0617100D01*
X0506100D02*
X0545404D01*
X0611100Y0152600D02*
X0617100Y0150600D01*
X0611100Y0148600D02*
X0617100Y0150600D01*
X0506100D02*
X0512100Y0148600D01*
X0506100Y0150600D02*
X0512100Y0152600D01*
X0489000Y0275400D02*
X0491000Y0269400D01*
X0487000D02*
X0489000Y0275400D01*
X0487000Y0177000D02*
X0489000Y0171000D01*
X0491000Y0177000D01*
X0489000Y0236696D02*
Y0275400D01*
Y0171000D02*
Y0206504D01*
X0488000Y0275400D02*
X0505400D01*
X0488000Y0171000D02*
X0505100D01*
D33*
X0551003Y0147001D02*
X0547004D01*
X0551003Y0151000D01*
Y0151999D01*
X0550003Y0152999D01*
X0548004D01*
X0547004Y0151999D01*
X0553002D02*
X0554002Y0152999D01*
X0556001D01*
X0557001Y0151999D01*
Y0151000D01*
X0556001Y0150000D01*
X0557001Y0149000D01*
Y0148001D01*
X0556001Y0147001D01*
X0554002D01*
X0553002Y0148001D01*
Y0149000D01*
X0554002Y0150000D01*
X0553002Y0151000D01*
Y0151999D01*
X0554002Y0150000D02*
X0556001D01*
X0559000Y0147001D02*
Y0148001D01*
X0560000D01*
Y0147001D01*
X0559000D01*
X0563999D02*
X0565998D01*
X0564998D01*
Y0152999D01*
X0563999Y0151999D01*
X0568997Y0148001D02*
X0569997Y0147001D01*
X0571996D01*
X0572996Y0148001D01*
Y0151999D01*
X0571996Y0152999D01*
X0569997D01*
X0568997Y0151999D01*
Y0151000D01*
X0569997Y0150000D01*
X0572996D01*
X0492599Y0212103D02*
Y0208104D01*
X0488600Y0212103D01*
X0487601D01*
X0486601Y0211103D01*
Y0209104D01*
X0487601Y0208104D01*
X0486601Y0218101D02*
X0487601Y0216102D01*
X0489600Y0214102D01*
X0491599D01*
X0492599Y0215102D01*
Y0217102D01*
X0491599Y0218101D01*
X0490600D01*
X0489600Y0217102D01*
Y0214102D01*
X0492599Y0220100D02*
X0491599D01*
Y0221100D01*
X0492599D01*
Y0220100D01*
X0486601Y0229098D02*
Y0225099D01*
X0489600D01*
X0488600Y0227098D01*
Y0228098D01*
X0489600Y0229098D01*
X0491599D01*
X0492599Y0228098D01*
Y0226098D01*
X0491599Y0225099D01*
X0492599Y0235096D02*
Y0231097D01*
X0488600Y0235096D01*
X0487601D01*
X0486601Y0234096D01*
Y0232097D01*
X0487601Y0231097D01*
M02*
