G04*
G04 #@! TF.GenerationSoftware,Altium Limited,Altium Designer,18.1.9 (240)*
G04*
G04 Layer_Physical_Order=1*
G04 Layer_Color=255*
%FSAX25Y25*%
%MOIN*%
G70*
G01*
G75*
%ADD13R,0.03937X0.03150*%
%ADD14R,0.02717X0.06496*%
%ADD15R,0.02165X0.00984*%
%ADD23C,0.00800*%
%ADD24C,0.03000*%
%ADD25C,0.02500*%
%ADD26C,0.03937*%
%ADD27C,0.05906*%
%ADD28R,0.05906X0.05906*%
%ADD29C,0.23622*%
%ADD30C,0.01968*%
G36*
X0615883Y0172217D02*
X0507317D01*
Y0194979D01*
X0507747Y0195147D01*
X0507817Y0195147D01*
X0515253D01*
Y0202653D01*
X0507817D01*
X0507747Y0202653D01*
X0507317Y0202821D01*
Y0218091D01*
X0507817Y0218124D01*
X0507844Y0217920D01*
X0508222Y0217007D01*
X0508823Y0216224D01*
X0509607Y0215622D01*
X0510520Y0215244D01*
X0511500Y0215115D01*
X0512480Y0215244D01*
X0513393Y0215622D01*
X0514177Y0216224D01*
X0514778Y0217007D01*
X0515055Y0217676D01*
X0532238D01*
X0532414Y0217414D01*
X0532477Y0217372D01*
Y0210724D01*
X0532570Y0210256D01*
X0532835Y0209859D01*
X0543277Y0199418D01*
Y0189696D01*
X0543370Y0189228D01*
X0543635Y0188831D01*
X0547154Y0185312D01*
X0547551Y0185047D01*
X0548019Y0184954D01*
X0550099D01*
Y0184885D01*
X0553864D01*
Y0187469D01*
X0550099D01*
Y0187401D01*
X0548526D01*
X0545723Y0190203D01*
Y0199925D01*
X0545630Y0200393D01*
X0545365Y0200790D01*
X0534924Y0211231D01*
Y0217372D01*
X0534986Y0217414D01*
X0535381Y0218004D01*
X0535519Y0218700D01*
X0535381Y0219396D01*
X0534986Y0219986D01*
X0534396Y0220381D01*
X0533700Y0220519D01*
X0533004Y0220381D01*
X0532619Y0220124D01*
X0515055D01*
X0514778Y0220793D01*
X0514177Y0221576D01*
X0513393Y0222178D01*
X0512480Y0222556D01*
X0511500Y0222685D01*
X0510520Y0222556D01*
X0509607Y0222178D01*
X0508823Y0221576D01*
X0508222Y0220793D01*
X0507844Y0219880D01*
X0507817Y0219676D01*
X0507317Y0219709D01*
Y0228091D01*
X0507817Y0228124D01*
X0507844Y0227920D01*
X0508222Y0227007D01*
X0508823Y0226223D01*
X0509607Y0225622D01*
X0510520Y0225244D01*
X0511500Y0225115D01*
X0512480Y0225244D01*
X0513393Y0225622D01*
X0514177Y0226223D01*
X0514778Y0227007D01*
X0515156Y0227920D01*
X0515285Y0228900D01*
X0515156Y0229880D01*
X0514778Y0230793D01*
X0514177Y0231576D01*
X0513393Y0232178D01*
X0512480Y0232556D01*
X0511500Y0232685D01*
X0510520Y0232556D01*
X0509607Y0232178D01*
X0508823Y0231576D01*
X0508222Y0230793D01*
X0507844Y0229880D01*
X0507817Y0229676D01*
X0507317Y0229709D01*
Y0238091D01*
X0507817Y0238124D01*
X0507844Y0237920D01*
X0508222Y0237007D01*
X0508823Y0236224D01*
X0509607Y0235622D01*
X0510520Y0235244D01*
X0511500Y0235115D01*
X0512480Y0235244D01*
X0513393Y0235622D01*
X0514177Y0236224D01*
X0514778Y0237007D01*
X0515156Y0237920D01*
X0515285Y0238900D01*
X0515156Y0239880D01*
X0514778Y0240793D01*
X0514177Y0241577D01*
X0513393Y0242178D01*
X0512480Y0242556D01*
X0511500Y0242685D01*
X0510520Y0242556D01*
X0509607Y0242178D01*
X0508823Y0241577D01*
X0508222Y0240793D01*
X0507844Y0239880D01*
X0507817Y0239676D01*
X0507317Y0239709D01*
Y0248091D01*
X0507817Y0248124D01*
X0507844Y0247920D01*
X0508222Y0247007D01*
X0508823Y0246223D01*
X0509607Y0245622D01*
X0510520Y0245244D01*
X0511500Y0245115D01*
X0512480Y0245244D01*
X0513393Y0245622D01*
X0514177Y0246223D01*
X0514778Y0247007D01*
X0515156Y0247920D01*
X0515285Y0248900D01*
X0515156Y0249880D01*
X0514778Y0250793D01*
X0514177Y0251576D01*
X0513393Y0252178D01*
X0512480Y0252556D01*
X0511500Y0252685D01*
X0510520Y0252556D01*
X0509607Y0252178D01*
X0508823Y0251576D01*
X0508222Y0250793D01*
X0507844Y0249880D01*
X0507817Y0249676D01*
X0507317Y0249709D01*
Y0274183D01*
X0615883D01*
Y0172217D01*
D02*
G37*
%LPC*%
G36*
X0615153Y0252453D02*
X0607647D01*
Y0244947D01*
X0615153D01*
Y0252453D01*
D02*
G37*
G36*
X0588559Y0243166D02*
X0587836Y0243071D01*
X0587163Y0242792D01*
X0586585Y0242349D01*
X0586141Y0241770D01*
X0585862Y0241097D01*
X0585767Y0240374D01*
X0585862Y0239651D01*
X0586141Y0238978D01*
X0586585Y0238400D01*
X0587163Y0237956D01*
X0587836Y0237677D01*
X0588559Y0237582D01*
X0589282Y0237677D01*
X0589955Y0237956D01*
X0590534Y0238400D01*
X0590977Y0238978D01*
X0591256Y0239651D01*
X0591352Y0240374D01*
X0591256Y0241097D01*
X0590977Y0241770D01*
X0590534Y0242349D01*
X0589955Y0242792D01*
X0589282Y0243071D01*
X0588559Y0243166D01*
D02*
G37*
G36*
X0611400Y0242485D02*
X0610420Y0242356D01*
X0609507Y0241978D01*
X0608723Y0241376D01*
X0608122Y0240593D01*
X0607744Y0239680D01*
X0607615Y0238700D01*
X0607744Y0237720D01*
X0608122Y0236807D01*
X0608723Y0236023D01*
X0609507Y0235422D01*
X0610420Y0235044D01*
X0611400Y0234915D01*
X0612380Y0235044D01*
X0613293Y0235422D01*
X0614077Y0236023D01*
X0614678Y0236807D01*
X0615056Y0237720D01*
X0615185Y0238700D01*
X0615056Y0239680D01*
X0614678Y0240593D01*
X0614077Y0241376D01*
X0613293Y0241978D01*
X0612380Y0242356D01*
X0611400Y0242485D01*
D02*
G37*
G36*
X0588559Y0235292D02*
X0587836Y0235197D01*
X0587163Y0234918D01*
X0586585Y0234474D01*
X0586141Y0233896D01*
X0585862Y0233223D01*
X0585767Y0232500D01*
X0585862Y0231777D01*
X0586141Y0231104D01*
X0586585Y0230525D01*
X0587163Y0230082D01*
X0587836Y0229803D01*
X0588559Y0229708D01*
X0589282Y0229803D01*
X0589955Y0230082D01*
X0590534Y0230525D01*
X0590977Y0231104D01*
X0591256Y0231777D01*
X0591352Y0232500D01*
X0591256Y0233223D01*
X0590977Y0233896D01*
X0590534Y0234474D01*
X0589955Y0234918D01*
X0589282Y0235197D01*
X0588559Y0235292D01*
D02*
G37*
G36*
X0611400Y0232485D02*
X0610420Y0232356D01*
X0609507Y0231978D01*
X0608723Y0231377D01*
X0608122Y0230593D01*
X0607744Y0229680D01*
X0607615Y0228700D01*
X0607744Y0227720D01*
X0608122Y0226807D01*
X0608723Y0226024D01*
X0609507Y0225422D01*
X0610420Y0225044D01*
X0611400Y0224915D01*
X0612380Y0225044D01*
X0613293Y0225422D01*
X0614077Y0226024D01*
X0614678Y0226807D01*
X0615056Y0227720D01*
X0615185Y0228700D01*
X0615056Y0229680D01*
X0614678Y0230593D01*
X0614077Y0231377D01*
X0613293Y0231978D01*
X0612380Y0232356D01*
X0611400Y0232485D01*
D02*
G37*
G36*
Y0222485D02*
X0610420Y0222356D01*
X0609507Y0221978D01*
X0608723Y0221376D01*
X0608122Y0220593D01*
X0607744Y0219680D01*
X0607615Y0218700D01*
X0607744Y0217720D01*
X0608122Y0216807D01*
X0608723Y0216023D01*
X0609507Y0215422D01*
X0610420Y0215044D01*
X0611400Y0214915D01*
X0612380Y0215044D01*
X0613293Y0215422D01*
X0614077Y0216023D01*
X0614678Y0216807D01*
X0615056Y0217720D01*
X0615185Y0218700D01*
X0615056Y0219680D01*
X0614678Y0220593D01*
X0614077Y0221376D01*
X0613293Y0221978D01*
X0612380Y0222356D01*
X0611400Y0222485D01*
D02*
G37*
G36*
X0541315Y0213639D02*
X0540592Y0213544D01*
X0539919Y0213265D01*
X0539340Y0212821D01*
X0538897Y0212243D01*
X0538618Y0211569D01*
X0538523Y0210846D01*
X0538618Y0210124D01*
X0538897Y0209450D01*
X0539340Y0208872D01*
X0539919Y0208428D01*
X0540592Y0208149D01*
X0541315Y0208054D01*
X0542038Y0208149D01*
X0542711Y0208428D01*
X0543290Y0208872D01*
X0543733Y0209450D01*
X0544012Y0210124D01*
X0544107Y0210846D01*
X0544012Y0211569D01*
X0543733Y0212243D01*
X0543290Y0212821D01*
X0542711Y0213265D01*
X0542038Y0213544D01*
X0541315Y0213639D01*
D02*
G37*
G36*
X0609700Y0202745D02*
X0594000D01*
X0593103Y0202567D01*
X0592988Y0202490D01*
X0586500D01*
X0586500Y0202490D01*
X0585700Y0202331D01*
X0585022Y0201878D01*
X0585022Y0201878D01*
X0577822Y0194678D01*
X0577369Y0194000D01*
X0577210Y0193200D01*
X0577210Y0193200D01*
Y0186266D01*
X0573649Y0182705D01*
X0568874D01*
Y0182362D01*
X0566072D01*
X0565272Y0182203D01*
X0564594Y0181750D01*
X0564424Y0181495D01*
X0563904D01*
Y0183532D01*
X0560139D01*
Y0178980D01*
X0563904D01*
Y0179048D01*
X0564424D01*
X0564594Y0178794D01*
X0565272Y0178341D01*
X0566072Y0178182D01*
X0568874D01*
Y0177955D01*
X0574411D01*
Y0178276D01*
X0575030Y0178399D01*
X0575708Y0178852D01*
X0580778Y0183922D01*
X0580778Y0183922D01*
X0581231Y0184600D01*
X0581390Y0185400D01*
X0581390Y0185400D01*
Y0192334D01*
X0587366Y0198310D01*
X0592988D01*
X0593103Y0198233D01*
X0594000Y0198055D01*
X0607700D01*
X0607744Y0197720D01*
X0608122Y0196807D01*
X0608723Y0196023D01*
X0609507Y0195422D01*
X0610420Y0195044D01*
X0611400Y0194915D01*
X0612380Y0195044D01*
X0613293Y0195422D01*
X0614077Y0196023D01*
X0614678Y0196807D01*
X0615056Y0197720D01*
X0615185Y0198700D01*
X0615056Y0199680D01*
X0614678Y0200593D01*
X0614077Y0201377D01*
X0613293Y0201978D01*
X0612380Y0202356D01*
X0611400Y0202485D01*
X0610831Y0202410D01*
X0610597Y0202567D01*
X0609700Y0202745D01*
D02*
G37*
G36*
X0522000Y0206419D02*
X0521304Y0206281D01*
X0520714Y0205886D01*
X0520319Y0205296D01*
X0520181Y0204600D01*
X0520319Y0203904D01*
X0520714Y0203314D01*
X0521304Y0202919D01*
X0522000Y0202781D01*
X0522074Y0202796D01*
X0522935Y0201935D01*
X0523332Y0201670D01*
X0523800Y0201576D01*
X0531393D01*
X0538495Y0194474D01*
X0538481Y0194400D01*
X0538619Y0193704D01*
X0539014Y0193114D01*
X0539604Y0192719D01*
X0540300Y0192581D01*
X0540996Y0192719D01*
X0541586Y0193114D01*
X0541981Y0193704D01*
X0542119Y0194400D01*
X0541981Y0195096D01*
X0541586Y0195686D01*
X0540996Y0196081D01*
X0540300Y0196219D01*
X0540226Y0196204D01*
X0532765Y0203665D01*
X0532368Y0203930D01*
X0531900Y0204024D01*
X0524307D01*
X0523805Y0204526D01*
X0523819Y0204600D01*
X0523681Y0205296D01*
X0523286Y0205886D01*
X0522696Y0206281D01*
X0522000Y0206419D01*
D02*
G37*
G36*
X0553864Y0183532D02*
X0550099D01*
Y0181495D01*
X0547523D01*
X0547519Y0181500D01*
X0547381Y0182196D01*
X0546986Y0182786D01*
X0546396Y0183181D01*
X0545700Y0183319D01*
X0545004Y0183181D01*
X0544414Y0182786D01*
X0544019Y0182196D01*
X0543881Y0181500D01*
X0544019Y0180804D01*
X0544414Y0180214D01*
X0545004Y0179819D01*
X0545700Y0179681D01*
X0545774Y0179695D01*
X0546063Y0179406D01*
X0546460Y0179141D01*
X0546928Y0179048D01*
X0550099D01*
Y0178980D01*
X0553864D01*
Y0180948D01*
Y0183532D01*
D02*
G37*
%LPD*%
D13*
X0571642Y0187205D02*
D03*
Y0180330D02*
D03*
D14*
X0557002Y0183224D02*
D03*
D15*
X0562021Y0180272D02*
D03*
Y0182240D02*
D03*
Y0184209D02*
D03*
Y0186177D02*
D03*
X0551982Y0180272D02*
D03*
Y0182240D02*
D03*
Y0184209D02*
D03*
Y0186177D02*
D03*
D23*
X0511500Y0218900D02*
X0533700D01*
Y0210724D02*
Y0218700D01*
Y0210724D02*
X0544500Y0199925D01*
X0548019Y0186177D02*
X0551982D01*
X0544500Y0189696D02*
X0548019Y0186177D01*
X0544500Y0189696D02*
Y0199925D01*
X0562021Y0180272D02*
X0566072D01*
X0562021Y0184209D02*
Y0186177D01*
X0551982Y0184209D02*
X0556017D01*
X0557002Y0183224D01*
X0546928Y0180272D02*
X0551982D01*
X0545700Y0181500D02*
X0546928Y0180272D01*
X0522000Y0204600D02*
X0523800Y0202800D01*
X0611200Y0218900D02*
X0611400Y0218700D01*
X0523800Y0202800D02*
X0531900D01*
X0540300Y0194400D01*
D24*
X0609700Y0200400D02*
X0611400Y0198700D01*
X0594000Y0200400D02*
X0609700D01*
D25*
X0566072Y0180272D02*
X0571584D01*
X0571642Y0180330D01*
X0574230D01*
X0579300Y0185400D01*
Y0193200D01*
X0586500Y0200400D01*
X0594000D01*
D26*
X0588559Y0240374D02*
D03*
X0541315Y0230532D02*
D03*
Y0210846D02*
D03*
X0588559Y0232500D02*
D03*
D27*
X0511500Y0248900D02*
D03*
Y0238900D02*
D03*
Y0228900D02*
D03*
Y0218900D02*
D03*
Y0208900D02*
D03*
X0611400Y0198700D02*
D03*
Y0208700D02*
D03*
Y0218700D02*
D03*
Y0228700D02*
D03*
Y0238700D02*
D03*
D28*
X0511500Y0198900D02*
D03*
X0611400Y0248700D02*
D03*
D29*
X0595500Y0183900D02*
D03*
X0528600D02*
D03*
D30*
X0606299Y0267717D02*
D03*
X0610237Y0259843D02*
D03*
X0606299Y0251969D02*
D03*
Y0204725D02*
D03*
X0610237Y0181103D02*
D03*
X0606299Y0173228D02*
D03*
X0598425Y0267717D02*
D03*
X0602362Y0259843D02*
D03*
X0598425Y0251969D02*
D03*
X0602362Y0244095D02*
D03*
X0598425Y0236221D02*
D03*
X0602362Y0228347D02*
D03*
Y0212598D02*
D03*
X0598425Y0204725D02*
D03*
X0602362Y0196851D02*
D03*
X0590552Y0267717D02*
D03*
X0594488Y0259843D02*
D03*
X0590552Y0251969D02*
D03*
X0594488Y0244095D02*
D03*
X0590552Y0236221D02*
D03*
X0594488Y0228347D02*
D03*
Y0212598D02*
D03*
X0582678Y0267717D02*
D03*
X0586615Y0259843D02*
D03*
X0582678Y0251969D02*
D03*
X0586615Y0244095D02*
D03*
X0582678Y0236221D02*
D03*
X0586615Y0228347D02*
D03*
X0582678Y0204725D02*
D03*
Y0188977D02*
D03*
Y0173228D02*
D03*
X0574803Y0267717D02*
D03*
X0578741Y0259843D02*
D03*
X0574803Y0251969D02*
D03*
X0578741Y0244095D02*
D03*
X0574803Y0236221D02*
D03*
X0578741Y0228347D02*
D03*
X0574803Y0204725D02*
D03*
Y0173228D02*
D03*
X0566929Y0267717D02*
D03*
X0570866Y0259843D02*
D03*
X0566929Y0251969D02*
D03*
X0570866Y0244095D02*
D03*
Y0228347D02*
D03*
Y0212598D02*
D03*
X0566929Y0204725D02*
D03*
X0570866Y0196851D02*
D03*
X0566929Y0188977D02*
D03*
Y0173228D02*
D03*
X0559055Y0267717D02*
D03*
X0562992Y0259843D02*
D03*
X0559055Y0251969D02*
D03*
X0562992Y0244095D02*
D03*
Y0228347D02*
D03*
Y0212598D02*
D03*
X0559055Y0204725D02*
D03*
X0562992Y0196851D02*
D03*
X0559055Y0188977D02*
D03*
Y0173228D02*
D03*
X0551181Y0267717D02*
D03*
X0555118Y0259843D02*
D03*
X0551181Y0251969D02*
D03*
X0555118Y0244095D02*
D03*
Y0228347D02*
D03*
Y0212598D02*
D03*
X0551181Y0204725D02*
D03*
X0555118Y0196851D02*
D03*
X0551181Y0188977D02*
D03*
Y0173228D02*
D03*
X0543307Y0267717D02*
D03*
X0547244Y0259843D02*
D03*
X0543307Y0251969D02*
D03*
X0547244Y0244095D02*
D03*
Y0228347D02*
D03*
Y0212598D02*
D03*
X0543307Y0204725D02*
D03*
X0547244Y0196851D02*
D03*
X0543307Y0173228D02*
D03*
X0535433Y0267717D02*
D03*
X0539370Y0259843D02*
D03*
X0535433Y0251969D02*
D03*
X0539370Y0244095D02*
D03*
X0535433Y0204725D02*
D03*
X0527559Y0267717D02*
D03*
X0531496Y0259843D02*
D03*
X0527559Y0251969D02*
D03*
X0531496Y0244095D02*
D03*
Y0228347D02*
D03*
Y0212598D02*
D03*
X0519685Y0267717D02*
D03*
X0523622Y0259843D02*
D03*
X0519685Y0251969D02*
D03*
X0523622Y0244095D02*
D03*
Y0228347D02*
D03*
Y0196851D02*
D03*
X0519685Y0173228D02*
D03*
X0511811Y0267717D02*
D03*
X0515748Y0259843D02*
D03*
Y0212598D02*
D03*
X0511811Y0188977D02*
D03*
Y0173228D02*
D03*
X0594000Y0200400D02*
D03*
X0545700Y0181500D02*
D03*
X0522000Y0204600D02*
D03*
X0540300Y0194400D02*
D03*
X0533700Y0218700D02*
D03*
M02*
