G04*
G04 #@! TF.GenerationSoftware,Altium Limited,Altium Designer,18.1.9 (240)*
G04*
G04 Layer_Color=65535*
%FSAX25Y25*%
%MOIN*%
G70*
G01*
G75*
%ADD10C,0.00787*%
%ADD11C,0.00394*%
%ADD12C,0.00591*%
D10*
X0602535Y0232500D02*
G03*
X0602535Y0232500I-0041535J0000000D01*
G01*
X0574792Y0177468D02*
Y0190066D01*
X0568493Y0177468D02*
X0574792D01*
X0568493D02*
Y0190066D01*
X0574792D01*
X0549502Y0189224D02*
X0564502D01*
Y0177224D02*
Y0189224D01*
X0549502Y0177224D02*
X0564502D01*
X0549502D02*
Y0189224D01*
X0516500Y0193900D02*
Y0253900D01*
X0506500Y0193900D02*
Y0253900D01*
Y0193900D02*
X0516500D01*
X0506500Y0253900D02*
X0516500D01*
X0606400Y0193700D02*
Y0253700D01*
X0616400Y0193700D02*
Y0253700D01*
X0606400D02*
X0616400D01*
X0606400Y0193700D02*
X0616400D01*
D11*
X0548698Y0187724D02*
G03*
X0548698Y0187724I-0000197J0000000D01*
G01*
D12*
X0508500Y0189300D02*
Y0192055D01*
X0509877D01*
X0510337Y0191596D01*
Y0190677D01*
X0509877Y0190218D01*
X0508500D01*
X0511255Y0189300D02*
X0512173D01*
X0511714D01*
Y0192055D01*
X0511255Y0191596D01*
X0610200Y0187800D02*
Y0190555D01*
X0611578D01*
X0612037Y0190096D01*
Y0189178D01*
X0611578Y0188718D01*
X0610200D01*
X0614792Y0187800D02*
X0612955D01*
X0614792Y0189637D01*
Y0190096D01*
X0614332Y0190555D01*
X0613414D01*
X0612955Y0190096D01*
X0528037Y0267955D02*
X0527118D01*
X0527577D01*
Y0265659D01*
X0527118Y0265200D01*
X0526659D01*
X0526200Y0265659D01*
X0528955Y0265200D02*
X0529873D01*
X0529414D01*
Y0267955D01*
X0528955Y0267496D01*
X0544237Y0191455D02*
X0543318D01*
X0543778D01*
Y0189159D01*
X0543318Y0188700D01*
X0542859D01*
X0542400Y0189159D01*
X0546992Y0188700D02*
X0545155D01*
X0546992Y0190537D01*
Y0190996D01*
X0546532Y0191455D01*
X0545614D01*
X0545155Y0190996D01*
X0578437Y0190696D02*
X0577978Y0191155D01*
X0577059D01*
X0576600Y0190696D01*
Y0188859D01*
X0577059Y0188400D01*
X0577978D01*
X0578437Y0188859D01*
X0579355Y0188400D02*
X0580273D01*
X0579814D01*
Y0191155D01*
X0579355Y0190696D01*
M02*
