G04*
G04 #@! TF.GenerationSoftware,Altium Limited,Altium Designer,18.1.9 (240)*
G04*
G04 Layer_Color=32896*
%FSAX25Y25*%
%MOIN*%
G70*
G01*
G75*
%ADD10C,0.00787*%
%ADD12C,0.00591*%
D10*
X0572813Y0238423D02*
X0570845Y0234487D01*
X0568877Y0238423D01*
X0566909Y0239407D02*
X0565925Y0240391D01*
X0563957D01*
X0562973Y0239407D01*
Y0235471D01*
X0563957Y0234487D01*
X0565925D01*
X0566909Y0235471D01*
Y0239407D01*
X0561005Y0234487D02*
Y0235471D01*
X0560021D01*
Y0234487D01*
X0561005D01*
X0556086D02*
X0554118D01*
X0555102D01*
Y0240391D01*
X0556086Y0239407D01*
X0583913Y0268891D02*
X0581945D01*
X0582929D01*
Y0262987D01*
X0583913D01*
X0581945D01*
X0578993D02*
Y0268891D01*
X0576041D01*
X0575057Y0267907D01*
Y0265939D01*
X0576041Y0264955D01*
X0578993D01*
X0577025D02*
X0575057Y0262987D01*
X0573089D02*
Y0268891D01*
X0569154Y0262987D01*
Y0268891D01*
X0567186Y0262987D02*
Y0266923D01*
X0565218Y0268891D01*
X0563250Y0266923D01*
Y0262987D01*
Y0265939D01*
X0567186D01*
X0557346Y0267907D02*
X0558330Y0268891D01*
X0560298D01*
X0561282Y0267907D01*
Y0266923D01*
X0560298Y0265939D01*
X0558330D01*
X0557346Y0264955D01*
Y0263971D01*
X0558330Y0262987D01*
X0560298D01*
X0561282Y0263971D01*
X0555378Y0262987D02*
Y0263971D01*
X0554395D01*
Y0262987D01*
X0555378D01*
X0546523Y0268891D02*
X0550459D01*
Y0262987D01*
X0546523D01*
X0550459Y0265939D02*
X0548491D01*
X0544555Y0268891D02*
Y0263971D01*
X0543571Y0262987D01*
X0541604D01*
X0540620Y0263971D01*
Y0268891D01*
X0579977Y0259181D02*
X0580961Y0260165D01*
X0582929D01*
X0583913Y0259181D01*
Y0255245D01*
X0582929Y0254261D01*
X0580961D01*
X0579977Y0255245D01*
X0575057Y0260165D02*
X0577025D01*
X0578009Y0259181D01*
Y0255245D01*
X0577025Y0254261D01*
X0575057D01*
X0574073Y0255245D01*
Y0259181D01*
X0575057Y0260165D01*
X0568170Y0254261D02*
X0572105D01*
X0568170Y0258197D01*
Y0259181D01*
X0569154Y0260165D01*
X0571122D01*
X0572105Y0259181D01*
X0583913Y0251191D02*
Y0245287D01*
X0580961D01*
X0579977Y0246271D01*
Y0247255D01*
X0580961Y0248239D01*
X0583913D01*
X0580961D01*
X0579977Y0249223D01*
Y0250207D01*
X0580961Y0251191D01*
X0583913D01*
X0578009Y0245287D02*
Y0251191D01*
X0575057D01*
X0574073Y0250207D01*
Y0248239D01*
X0575057Y0247255D01*
X0578009D01*
X0576041D02*
X0574073Y0245287D01*
X0572105D02*
Y0249223D01*
X0570138Y0251191D01*
X0568170Y0249223D01*
Y0245287D01*
Y0248239D01*
X0572105D01*
X0566202Y0251191D02*
Y0245287D01*
Y0247255D01*
X0562266Y0251191D01*
X0565218Y0248239D01*
X0562266Y0245287D01*
X0556362Y0251191D02*
X0560298D01*
Y0245287D01*
X0556362D01*
X0560298Y0248239D02*
X0558330D01*
X0551443Y0251191D02*
X0553411D01*
X0554395Y0250207D01*
Y0246271D01*
X0553411Y0245287D01*
X0551443D01*
X0550459Y0246271D01*
Y0250207D01*
X0551443Y0251191D01*
X0548491D02*
Y0246271D01*
X0547507Y0245287D01*
X0545539D01*
X0544555Y0246271D01*
Y0251191D01*
X0542587D02*
X0538652D01*
X0540620D01*
Y0245287D01*
D12*
X0523500Y0248400D02*
Y0251155D01*
X0522122D01*
X0521663Y0250696D01*
Y0249778D01*
X0522122Y0249318D01*
X0523500D01*
X0522582D02*
X0521663Y0248400D01*
X0520745Y0251155D02*
X0518908Y0248400D01*
Y0251155D02*
X0520745Y0248400D01*
X0523500Y0240655D02*
X0521663D01*
X0522582D01*
Y0237900D01*
X0520745Y0240655D02*
X0518908Y0237900D01*
Y0240655D02*
X0520745Y0237900D01*
X0523163Y0229996D02*
X0523623Y0230455D01*
X0524541D01*
X0525000Y0229996D01*
Y0229537D01*
X0524541Y0229078D01*
X0523623D01*
X0523163Y0228618D01*
Y0228159D01*
X0523623Y0227700D01*
X0524541D01*
X0525000Y0228159D01*
X0520408Y0229996D02*
X0520867Y0230455D01*
X0521786D01*
X0522245Y0229996D01*
Y0228159D01*
X0521786Y0227700D01*
X0520867D01*
X0520408Y0228159D01*
X0519490Y0230455D02*
Y0227700D01*
X0517653D01*
X0523763Y0220696D02*
X0524223Y0221155D01*
X0525141D01*
X0525600Y0220696D01*
Y0220237D01*
X0525141Y0219777D01*
X0524223D01*
X0523763Y0219318D01*
Y0218859D01*
X0524223Y0218400D01*
X0525141D01*
X0525600Y0218859D01*
X0522845Y0221155D02*
Y0218400D01*
X0521467D01*
X0521008Y0218859D01*
Y0220696D01*
X0521467Y0221155D01*
X0522845D01*
X0520090Y0218400D02*
Y0220237D01*
X0519172Y0221155D01*
X0518253Y0220237D01*
Y0218400D01*
Y0219777D01*
X0520090D01*
X0523763Y0210796D02*
X0524223Y0211255D01*
X0525141D01*
X0525600Y0210796D01*
Y0208959D01*
X0525141Y0208500D01*
X0524223D01*
X0523763Y0208959D01*
Y0209877D01*
X0524682D01*
X0522845Y0208500D02*
Y0211255D01*
X0521008Y0208500D01*
Y0211255D01*
X0520090D02*
Y0208500D01*
X0518712D01*
X0518253Y0208959D01*
Y0210796D01*
X0518712Y0211255D01*
X0520090D01*
X0524700Y0202555D02*
Y0200718D01*
X0523782Y0199800D01*
X0522863Y0200718D01*
Y0202555D01*
X0520108Y0202096D02*
X0520568Y0202555D01*
X0521486D01*
X0521945Y0202096D01*
Y0200259D01*
X0521486Y0199800D01*
X0520568D01*
X0520108Y0200259D01*
X0517353Y0202096D02*
X0517812Y0202555D01*
X0518731D01*
X0519190Y0202096D01*
Y0200259D01*
X0518731Y0199800D01*
X0517812D01*
X0517353Y0200259D01*
X0604500Y0202855D02*
Y0201018D01*
X0603582Y0200100D01*
X0602663Y0201018D01*
Y0202855D01*
X0599908Y0202396D02*
X0600367Y0202855D01*
X0601286D01*
X0601745Y0202396D01*
Y0200559D01*
X0601286Y0200100D01*
X0600367D01*
X0599908Y0200559D01*
X0597153Y0202396D02*
X0597612Y0202855D01*
X0598531D01*
X0598990Y0202396D01*
Y0200559D01*
X0598531Y0200100D01*
X0597612D01*
X0597153Y0200559D01*
X0602363Y0210796D02*
X0602822Y0211255D01*
X0603741D01*
X0604200Y0210796D01*
Y0208959D01*
X0603741Y0208500D01*
X0602822D01*
X0602363Y0208959D01*
Y0209877D01*
X0603282D01*
X0601445Y0208500D02*
Y0211255D01*
X0599608Y0208500D01*
Y0211255D01*
X0598690D02*
Y0208500D01*
X0597312D01*
X0596853Y0208959D01*
Y0210796D01*
X0597312Y0211255D01*
X0598690D01*
X0602363Y0220996D02*
X0602822Y0221455D01*
X0603741D01*
X0604200Y0220996D01*
Y0220537D01*
X0603741Y0220077D01*
X0602822D01*
X0602363Y0219618D01*
Y0219159D01*
X0602822Y0218700D01*
X0603741D01*
X0604200Y0219159D01*
X0601445Y0221455D02*
Y0218700D01*
X0600068D01*
X0599608Y0219159D01*
Y0220996D01*
X0600068Y0221455D01*
X0601445D01*
X0598690Y0218700D02*
Y0220537D01*
X0597772Y0221455D01*
X0596853Y0220537D01*
Y0218700D01*
Y0220077D01*
X0598690D01*
X0602363Y0231496D02*
X0602822Y0231955D01*
X0603741D01*
X0604200Y0231496D01*
Y0231037D01*
X0603741Y0230577D01*
X0602822D01*
X0602363Y0230118D01*
Y0229659D01*
X0602822Y0229200D01*
X0603741D01*
X0604200Y0229659D01*
X0599608Y0231496D02*
X0600068Y0231955D01*
X0600986D01*
X0601445Y0231496D01*
Y0229659D01*
X0600986Y0229200D01*
X0600068D01*
X0599608Y0229659D01*
X0598690Y0231955D02*
Y0229200D01*
X0596853D01*
X0604500Y0240955D02*
X0602663D01*
X0603582D01*
Y0238200D01*
X0601745Y0240955D02*
X0599908Y0238200D01*
Y0240955D02*
X0601745Y0238200D01*
X0604200Y0248100D02*
Y0250855D01*
X0602822D01*
X0602363Y0250396D01*
Y0249478D01*
X0602822Y0249018D01*
X0604200D01*
X0603282D02*
X0602363Y0248100D01*
X0601445Y0250855D02*
X0599608Y0248100D01*
Y0250855D02*
X0601445Y0248100D01*
X0542363Y0236296D02*
X0542823Y0236755D01*
X0543741D01*
X0544200Y0236296D01*
Y0234459D01*
X0543741Y0234000D01*
X0542823D01*
X0542363Y0234459D01*
Y0235378D01*
X0543282D01*
X0541445Y0234000D02*
Y0236755D01*
X0539608Y0234000D01*
Y0236755D01*
X0538690D02*
Y0234000D01*
X0537312D01*
X0536853Y0234459D01*
Y0236296D01*
X0537312Y0236755D01*
X0538690D01*
X0544500Y0217855D02*
Y0216018D01*
X0543582Y0215100D01*
X0542663Y0216018D01*
Y0217855D01*
X0539908Y0217396D02*
X0540368Y0217855D01*
X0541286D01*
X0541745Y0217396D01*
Y0215559D01*
X0541286Y0215100D01*
X0540368D01*
X0539908Y0215559D01*
X0537153Y0217396D02*
X0537612Y0217855D01*
X0538531D01*
X0538990Y0217396D01*
Y0215559D01*
X0538531Y0215100D01*
X0537612D01*
X0537153Y0215559D01*
X0584400Y0242155D02*
X0582563D01*
X0583482D01*
Y0239400D01*
X0581645Y0242155D02*
X0579808Y0239400D01*
Y0242155D02*
X0581645Y0239400D01*
X0584100Y0231300D02*
Y0234055D01*
X0582723D01*
X0582263Y0233596D01*
Y0232678D01*
X0582723Y0232218D01*
X0584100D01*
X0583182D02*
X0582263Y0231300D01*
X0581345Y0234055D02*
X0579508Y0231300D01*
Y0234055D02*
X0581345Y0231300D01*
M02*
