G04*
G04 #@! TF.GenerationSoftware,Altium Limited,Altium Designer,18.1.9 (240)*
G04*
G04 Layer_Physical_Order=2*
G04 Layer_Color=16711680*
%FSAX25Y25*%
%MOIN*%
G70*
G01*
G75*
%ADD23C,0.00800*%
%ADD24C,0.03000*%
%ADD25C,0.02500*%
%ADD26C,0.03937*%
%ADD27C,0.05906*%
%ADD28R,0.05906X0.05906*%
%ADD29C,0.23622*%
%ADD30C,0.01968*%
%ADD31C,0.01200*%
G36*
X0507844Y0247920D02*
X0508222Y0247007D01*
X0508823Y0246223D01*
X0509607Y0245622D01*
X0510520Y0245244D01*
X0511500Y0245115D01*
X0512480Y0245244D01*
X0512945Y0245437D01*
X0521292Y0237089D01*
X0521101Y0236627D01*
X0516891D01*
X0515208Y0238311D01*
X0515285Y0238900D01*
X0515156Y0239880D01*
X0514778Y0240793D01*
X0514177Y0241577D01*
X0513393Y0242178D01*
X0512480Y0242556D01*
X0511500Y0242685D01*
X0510520Y0242556D01*
X0509607Y0242178D01*
X0508823Y0241577D01*
X0508222Y0240793D01*
X0507844Y0239880D01*
X0507817Y0239676D01*
X0507317Y0239709D01*
Y0248091D01*
X0507817Y0248124D01*
X0507844Y0247920D01*
D02*
G37*
G36*
X0615883Y0172217D02*
X0507317D01*
Y0194979D01*
X0507747Y0195147D01*
X0507817Y0195147D01*
X0515253D01*
Y0198055D01*
X0594000D01*
X0594897Y0198233D01*
X0595658Y0198742D01*
X0596167Y0199503D01*
X0596345Y0200400D01*
X0596167Y0201297D01*
X0595658Y0202058D01*
X0594897Y0202567D01*
X0594000Y0202745D01*
X0541190D01*
Y0207766D01*
X0541503Y0208079D01*
X0542038Y0208149D01*
X0542711Y0208428D01*
X0543290Y0208872D01*
X0543733Y0209450D01*
X0544012Y0210124D01*
X0544107Y0210846D01*
X0544012Y0211569D01*
X0543733Y0212243D01*
X0543290Y0212821D01*
X0542711Y0213265D01*
X0542038Y0213544D01*
X0541315Y0213639D01*
X0540592Y0213544D01*
X0539919Y0213265D01*
X0539340Y0212821D01*
X0538897Y0212243D01*
X0538618Y0211569D01*
X0538547Y0211035D01*
X0537622Y0210109D01*
X0537169Y0209431D01*
X0537010Y0208631D01*
X0537010Y0208631D01*
Y0202745D01*
X0523336D01*
X0523184Y0203245D01*
X0523286Y0203314D01*
X0523681Y0203904D01*
X0523819Y0204600D01*
X0523681Y0205296D01*
X0523286Y0205886D01*
X0523223Y0205928D01*
Y0218400D01*
X0523130Y0218868D01*
X0522865Y0219265D01*
X0521216Y0220915D01*
X0521407Y0221376D01*
X0605300D01*
X0605768Y0221470D01*
X0606165Y0221735D01*
X0609751Y0225321D01*
X0610420Y0225044D01*
X0611400Y0224915D01*
X0612380Y0225044D01*
X0613293Y0225422D01*
X0614077Y0226024D01*
X0614678Y0226807D01*
X0615056Y0227720D01*
X0615185Y0228700D01*
X0615056Y0229680D01*
X0614678Y0230593D01*
X0614077Y0231377D01*
X0613293Y0231978D01*
X0612380Y0232356D01*
X0611400Y0232485D01*
X0610420Y0232356D01*
X0609507Y0231978D01*
X0608723Y0231377D01*
X0608122Y0230593D01*
X0607744Y0229680D01*
X0607615Y0228700D01*
X0607744Y0227720D01*
X0608021Y0227051D01*
X0604793Y0223823D01*
X0518307D01*
X0514879Y0227251D01*
X0515156Y0227920D01*
X0515285Y0228900D01*
X0515156Y0229880D01*
X0514778Y0230793D01*
X0514177Y0231576D01*
X0513393Y0232178D01*
X0512480Y0232556D01*
X0511500Y0232685D01*
X0510520Y0232556D01*
X0509607Y0232178D01*
X0508823Y0231576D01*
X0508222Y0230793D01*
X0507844Y0229880D01*
X0507817Y0229676D01*
X0507317Y0229709D01*
Y0238091D01*
X0507817Y0238124D01*
X0507844Y0237920D01*
X0508222Y0237007D01*
X0508823Y0236224D01*
X0509607Y0235622D01*
X0510520Y0235244D01*
X0511500Y0235115D01*
X0512480Y0235244D01*
X0513393Y0235622D01*
X0513657Y0235825D01*
X0515291Y0234191D01*
X0515291Y0234191D01*
X0515754Y0233881D01*
X0516300Y0233773D01*
X0529079D01*
X0529089Y0233770D01*
X0570058D01*
X0572282Y0231547D01*
X0572282Y0231547D01*
X0572745Y0231237D01*
X0573291Y0231129D01*
X0586131D01*
X0586141Y0231104D01*
X0586585Y0230525D01*
X0587163Y0230082D01*
X0587836Y0229803D01*
X0588559Y0229708D01*
X0589282Y0229803D01*
X0589955Y0230082D01*
X0590534Y0230525D01*
X0590977Y0231104D01*
X0590988Y0231129D01*
X0605456D01*
X0605456Y0231129D01*
X0606002Y0231237D01*
X0606465Y0231547D01*
X0610097Y0235178D01*
X0610420Y0235044D01*
X0611400Y0234915D01*
X0612380Y0235044D01*
X0613293Y0235422D01*
X0614077Y0236023D01*
X0614678Y0236807D01*
X0615056Y0237720D01*
X0615185Y0238700D01*
X0615056Y0239680D01*
X0614678Y0240593D01*
X0614077Y0241376D01*
X0613293Y0241978D01*
X0612380Y0242356D01*
X0611400Y0242485D01*
X0610420Y0242356D01*
X0609507Y0241978D01*
X0608723Y0241376D01*
X0608122Y0240593D01*
X0607744Y0239680D01*
X0607615Y0238700D01*
X0607744Y0237720D01*
X0607995Y0237114D01*
X0604865Y0233984D01*
X0590910D01*
X0590534Y0234474D01*
X0589955Y0234918D01*
X0589282Y0235197D01*
X0588559Y0235292D01*
X0587836Y0235197D01*
X0587163Y0234918D01*
X0586585Y0234474D01*
X0586208Y0233984D01*
X0573882D01*
X0571659Y0236207D01*
X0571629Y0236510D01*
X0574192Y0239073D01*
X0586101D01*
X0586141Y0238978D01*
X0586585Y0238400D01*
X0587163Y0237956D01*
X0587836Y0237677D01*
X0588559Y0237582D01*
X0589282Y0237677D01*
X0589955Y0237956D01*
X0590534Y0238400D01*
X0590977Y0238978D01*
X0591017Y0239073D01*
X0603200D01*
X0603200Y0239073D01*
X0603746Y0239181D01*
X0604209Y0239491D01*
X0609666Y0244947D01*
X0615153D01*
Y0252453D01*
X0607647D01*
Y0246966D01*
X0602609Y0241927D01*
X0590857D01*
X0590534Y0242349D01*
X0589955Y0242792D01*
X0589282Y0243071D01*
X0588559Y0243166D01*
X0587836Y0243071D01*
X0587163Y0242792D01*
X0586585Y0242349D01*
X0586261Y0241927D01*
X0573601D01*
X0573600Y0241927D01*
X0573054Y0241819D01*
X0572591Y0241509D01*
X0569707Y0238625D01*
X0533711D01*
X0533441Y0238679D01*
X0533171Y0238625D01*
X0529926D01*
X0529916Y0238627D01*
X0529915Y0238627D01*
X0523791D01*
X0514963Y0247455D01*
X0515156Y0247920D01*
X0515285Y0248900D01*
X0515156Y0249880D01*
X0514778Y0250793D01*
X0514177Y0251576D01*
X0513393Y0252178D01*
X0512480Y0252556D01*
X0511500Y0252685D01*
X0510520Y0252556D01*
X0509607Y0252178D01*
X0508823Y0251576D01*
X0508222Y0250793D01*
X0507844Y0249880D01*
X0507817Y0249676D01*
X0507317Y0249709D01*
Y0274183D01*
X0615883D01*
Y0172217D01*
D02*
G37*
G36*
X0507844Y0227920D02*
X0508222Y0227007D01*
X0508823Y0226223D01*
X0509607Y0225622D01*
X0510520Y0225244D01*
X0511500Y0225115D01*
X0512480Y0225244D01*
X0513149Y0225521D01*
X0516935Y0221735D01*
X0516935Y0221735D01*
X0520777Y0217893D01*
Y0205928D01*
X0520714Y0205886D01*
X0520319Y0205296D01*
X0520181Y0204600D01*
X0520319Y0203904D01*
X0520714Y0203314D01*
X0520816Y0203245D01*
X0520665Y0202745D01*
X0513000D01*
X0512536Y0202653D01*
X0507817D01*
X0507747Y0202653D01*
X0507317Y0202821D01*
Y0218091D01*
X0507817Y0218124D01*
X0507844Y0217920D01*
X0508222Y0217007D01*
X0508823Y0216224D01*
X0509607Y0215622D01*
X0510520Y0215244D01*
X0511500Y0215115D01*
X0512480Y0215244D01*
X0513393Y0215622D01*
X0514177Y0216224D01*
X0514778Y0217007D01*
X0515156Y0217920D01*
X0515285Y0218900D01*
X0515156Y0219880D01*
X0514778Y0220793D01*
X0514177Y0221576D01*
X0513393Y0222178D01*
X0512480Y0222556D01*
X0511500Y0222685D01*
X0510520Y0222556D01*
X0509607Y0222178D01*
X0508823Y0221576D01*
X0508222Y0220793D01*
X0507844Y0219880D01*
X0507817Y0219676D01*
X0507317Y0219709D01*
Y0228091D01*
X0507817Y0228124D01*
X0507844Y0227920D01*
D02*
G37*
%LPC*%
G36*
X0611400Y0222485D02*
X0610420Y0222356D01*
X0609507Y0221978D01*
X0608723Y0221376D01*
X0608122Y0220593D01*
X0607845Y0219923D01*
X0535028D01*
X0534986Y0219986D01*
X0534396Y0220381D01*
X0533700Y0220519D01*
X0533004Y0220381D01*
X0532414Y0219986D01*
X0532019Y0219396D01*
X0531881Y0218700D01*
X0532019Y0218004D01*
X0532414Y0217414D01*
X0533004Y0217019D01*
X0533700Y0216881D01*
X0534396Y0217019D01*
X0534986Y0217414D01*
X0535028Y0217477D01*
X0607845D01*
X0608122Y0216807D01*
X0608723Y0216023D01*
X0609507Y0215422D01*
X0610420Y0215044D01*
X0611400Y0214915D01*
X0612380Y0215044D01*
X0613293Y0215422D01*
X0614077Y0216023D01*
X0614678Y0216807D01*
X0615056Y0217720D01*
X0615185Y0218700D01*
X0615056Y0219680D01*
X0614678Y0220593D01*
X0614077Y0221376D01*
X0613293Y0221978D01*
X0612380Y0222356D01*
X0611400Y0222485D01*
D02*
G37*
G36*
Y0202485D02*
X0610420Y0202356D01*
X0609507Y0201978D01*
X0608723Y0201377D01*
X0608122Y0200593D01*
X0607744Y0199680D01*
X0607615Y0198700D01*
X0607744Y0197720D01*
X0608122Y0196807D01*
X0608723Y0196023D01*
X0609507Y0195422D01*
X0610420Y0195044D01*
X0611400Y0194915D01*
X0612380Y0195044D01*
X0613293Y0195422D01*
X0614077Y0196023D01*
X0614678Y0196807D01*
X0615056Y0197720D01*
X0615185Y0198700D01*
X0615056Y0199680D01*
X0614678Y0200593D01*
X0614077Y0201377D01*
X0613293Y0201978D01*
X0612380Y0202356D01*
X0611400Y0202485D01*
D02*
G37*
G36*
X0540300Y0196219D02*
X0539604Y0196081D01*
X0539014Y0195686D01*
X0538619Y0195096D01*
X0538481Y0194400D01*
X0538619Y0193704D01*
X0539014Y0193114D01*
X0539604Y0192719D01*
X0540300Y0192581D01*
X0540374Y0192596D01*
X0543877Y0189093D01*
Y0182100D01*
X0543938Y0181789D01*
X0543881Y0181500D01*
X0544019Y0180804D01*
X0544414Y0180214D01*
X0545004Y0179819D01*
X0545700Y0179681D01*
X0546396Y0179819D01*
X0546986Y0180214D01*
X0547381Y0180804D01*
X0547519Y0181500D01*
X0547381Y0182196D01*
X0546986Y0182786D01*
X0546396Y0183181D01*
X0546323Y0183195D01*
Y0189600D01*
X0546230Y0190068D01*
X0545965Y0190465D01*
X0542104Y0194326D01*
X0542119Y0194400D01*
X0541981Y0195096D01*
X0541586Y0195686D01*
X0540996Y0196081D01*
X0540300Y0196219D01*
D02*
G37*
%LPD*%
D23*
X0517800Y0222600D02*
X0522000Y0218400D01*
X0511500Y0228900D02*
X0517800Y0222600D01*
X0605300D02*
X0611400Y0228700D01*
X0517800Y0222600D02*
X0605300D01*
X0522000Y0204600D02*
Y0218400D01*
X0533700Y0218700D02*
X0611400D01*
X0545100Y0182100D02*
X0545700Y0181500D01*
X0540300Y0194400D02*
X0545100Y0189600D01*
Y0182100D02*
Y0189600D01*
D24*
X0539100Y0200400D02*
X0594000D01*
X0513000D02*
X0539100D01*
X0511500Y0198900D02*
X0513000Y0200400D01*
D25*
X0539100D02*
Y0208631D01*
X0541315Y0210846D01*
D26*
X0588559Y0240374D02*
D03*
X0541315Y0230532D02*
D03*
Y0210846D02*
D03*
X0588559Y0232500D02*
D03*
D27*
X0511500Y0248900D02*
D03*
Y0238900D02*
D03*
Y0228900D02*
D03*
Y0218900D02*
D03*
Y0208900D02*
D03*
X0611400Y0198700D02*
D03*
Y0208700D02*
D03*
Y0218700D02*
D03*
Y0228700D02*
D03*
Y0238700D02*
D03*
D28*
X0511500Y0198900D02*
D03*
X0611400Y0248700D02*
D03*
D29*
X0595500Y0183900D02*
D03*
X0528600D02*
D03*
D30*
X0606299Y0267717D02*
D03*
X0610237Y0259843D02*
D03*
X0606299Y0251969D02*
D03*
Y0204725D02*
D03*
X0610237Y0181103D02*
D03*
X0606299Y0173228D02*
D03*
X0598425Y0267717D02*
D03*
X0602362Y0259843D02*
D03*
X0598425Y0251969D02*
D03*
X0602362Y0244095D02*
D03*
X0598425Y0236221D02*
D03*
X0602362Y0228347D02*
D03*
Y0212598D02*
D03*
X0598425Y0204725D02*
D03*
X0602362Y0196851D02*
D03*
X0590552Y0267717D02*
D03*
X0594488Y0259843D02*
D03*
X0590552Y0251969D02*
D03*
X0594488Y0244095D02*
D03*
X0590552Y0236221D02*
D03*
X0594488Y0228347D02*
D03*
Y0212598D02*
D03*
X0582678Y0267717D02*
D03*
X0586615Y0259843D02*
D03*
X0582678Y0251969D02*
D03*
X0586615Y0244095D02*
D03*
X0582678Y0236221D02*
D03*
X0586615Y0228347D02*
D03*
X0582678Y0204725D02*
D03*
Y0188977D02*
D03*
Y0173228D02*
D03*
X0574803Y0267717D02*
D03*
X0578741Y0259843D02*
D03*
X0574803Y0251969D02*
D03*
X0578741Y0244095D02*
D03*
X0574803Y0236221D02*
D03*
X0578741Y0228347D02*
D03*
X0574803Y0204725D02*
D03*
Y0173228D02*
D03*
X0566929Y0267717D02*
D03*
X0570866Y0259843D02*
D03*
X0566929Y0251969D02*
D03*
X0570866Y0244095D02*
D03*
Y0228347D02*
D03*
Y0212598D02*
D03*
X0566929Y0204725D02*
D03*
X0570866Y0196851D02*
D03*
X0566929Y0188977D02*
D03*
Y0173228D02*
D03*
X0559055Y0267717D02*
D03*
X0562992Y0259843D02*
D03*
X0559055Y0251969D02*
D03*
X0562992Y0244095D02*
D03*
Y0228347D02*
D03*
Y0212598D02*
D03*
X0559055Y0204725D02*
D03*
X0562992Y0196851D02*
D03*
X0559055Y0188977D02*
D03*
Y0173228D02*
D03*
X0551181Y0267717D02*
D03*
X0555118Y0259843D02*
D03*
X0551181Y0251969D02*
D03*
X0555118Y0244095D02*
D03*
Y0228347D02*
D03*
Y0212598D02*
D03*
X0551181Y0204725D02*
D03*
X0555118Y0196851D02*
D03*
X0551181Y0188977D02*
D03*
Y0173228D02*
D03*
X0543307Y0267717D02*
D03*
X0547244Y0259843D02*
D03*
X0543307Y0251969D02*
D03*
X0547244Y0244095D02*
D03*
Y0228347D02*
D03*
Y0212598D02*
D03*
X0543307Y0204725D02*
D03*
X0547244Y0196851D02*
D03*
X0543307Y0173228D02*
D03*
X0535433Y0267717D02*
D03*
X0539370Y0259843D02*
D03*
X0535433Y0251969D02*
D03*
X0539370Y0244095D02*
D03*
X0535433Y0204725D02*
D03*
X0527559Y0267717D02*
D03*
X0531496Y0259843D02*
D03*
X0527559Y0251969D02*
D03*
X0531496Y0244095D02*
D03*
Y0228347D02*
D03*
Y0212598D02*
D03*
X0519685Y0267717D02*
D03*
X0523622Y0259843D02*
D03*
X0519685Y0251969D02*
D03*
X0523622Y0244095D02*
D03*
Y0228347D02*
D03*
Y0196851D02*
D03*
X0519685Y0173228D02*
D03*
X0511811Y0267717D02*
D03*
X0515748Y0259843D02*
D03*
Y0212598D02*
D03*
X0511811Y0188977D02*
D03*
Y0173228D02*
D03*
X0594000Y0200400D02*
D03*
X0545700Y0181500D02*
D03*
X0522000Y0204600D02*
D03*
X0540300Y0194400D02*
D03*
X0533700Y0218700D02*
D03*
D31*
X0573600Y0240500D02*
X0603200D01*
X0570298Y0237198D02*
X0573600Y0240500D01*
X0533495Y0237198D02*
X0570298D01*
X0573291Y0232556D02*
X0605456D01*
X0611400Y0238500D01*
X0570649Y0235198D02*
X0573291Y0232556D01*
X0523200Y0237200D02*
X0529916D01*
X0511500Y0248900D02*
X0523200Y0237200D01*
X0603200Y0240500D02*
X0611400Y0248700D01*
X0512400Y0239100D02*
X0516300Y0235200D01*
X0529087D01*
X0529089Y0235198D01*
X0533400Y0237198D02*
Y0237211D01*
X0529917Y0237198D02*
X0533400D01*
X0529916Y0237200D02*
X0529917Y0237198D01*
X0529089Y0235198D02*
X0533400D01*
X0570649D01*
X0533441Y0237252D02*
X0533495Y0237198D01*
M02*
