M48
;Layer_Color=9474304
;FILE_FORMAT=2:5
INCH
;TYPE=PLATED
T1F00S00C0.01181
T2F00S00C0.02953
T3F00S00C0.03543
T4F00S00C0.12598
%
T01
X0522000Y0204600
X0525590Y0212598
X0537401
X0533700Y0218700
X0549212Y0212598
X0561023
X0572834
X0584646
X0596456
X0608267
Y0188976
X0594000Y0200400
X0572834Y0188976
X0561023
X0555900Y0180300
X0566929Y0177165
X0540300Y0194400
X0543307Y0248031
X0531496
X0519685
X0525590Y0259842
X0537401
X0549212
X0561023
X0572834
X0584646
X0596456
X0608267
X0602362Y0248031
X0590551
X0578740
X0566929
X0555118
X0584646Y0236220
X0596456
T02
X0541315Y0210846
Y0230532
X0588559Y0232500
Y0240374
T03
X0511500Y0198900
Y0208900
Y0218900
Y0228900
Y0238900
Y0248900
X0611400Y0249000
Y0239000
Y0229000
Y0219000
Y0209000
Y0199000
T04
X0528600Y0184500
X0595500
M30
