M48
;Layer_Color=9474304
;FILE_FORMAT=2:5
INCH
;TYPE=PLATED
T1F00S00C0.01181
T2F00S00C0.02953
T3F00S00C0.03543
T4F00S00C0.12598
%
T01
X0816503Y0143144
X0824377
X0847999
X0855873
X0863747
X0871621
X0879495
X0887369
X0910991
X0914928Y0151018
X0850392Y0151416
X0855873Y0158892
X0863747
X0871621
X0875558Y0166766
X0867684
X0859810
X0851936
X0844992Y0164316
X0847999Y0174640
X0855873
X0863747
X0871621
X0879495
X0887369
X0898692Y0170316
X0903117Y0174640
X0910991
X0907054Y0182514
X0899180
Y0198262
X0907054
X0903117Y0206136
X0895243
X0887369
X0879495
X0883432Y0214010
X0891306
X0899180
X0907054
X0910991Y0221884
X0903117
X0895243
X0887369
X0879495
X0871621
X0863747
X0855873
X0847999
X0840125
X0832251
X0824377
X0828314Y0229758
X0836188
X0844062
X0851936
X0859810
X0867684
X0875558
X0883432
X0891306
X0899180
X0907054
X0914928
X0910991Y0237632
X0903117
X0895243
X0887369
X0879495
X0871621
X0863747
X0855873
X0847999
X0840125
X0832251
X0824377
X0816503
X0820440Y0229758
X0828314Y0214010
X0836188
X0844062
X0851936
X0859810
X0867684
X0875558
Y0198262
X0883432
X0891306
X0867684
X0859810
X0851936
Y0182514
X0859810
X0867684
X0875558
X0887369Y0158892
X0907054Y0166766
X0840125Y0174640
X0836188Y0182514
X0838392Y0188616
X0836188Y0198262
X0828314
X0820440Y0182514
X0826692Y0174516
X0828314Y0166766
X0816503Y0158892
T02
X0846007Y0180762
Y0200447
X0893251Y0202416
Y0210290
T03
X0816192Y0168816
Y0178816
Y0188816
Y0198816
Y0208816
Y0218816
X0916092Y0218616
Y0208616
Y0198616
Y0188616
Y0178616
Y0168616
T04
X0833292Y0153816
X0900192
M30
